<?xml version="1.0" standalone="no"?>
<!DOCTYPE svg PUBLIC "-//W3C//DTD SVG 20010904//EN"
 "http://www.w3.org/TR/2001/REC-SVG-20010904/DTD/svg10.dtd">
<svg version="1.0" xmlns="http://www.w3.org/2000/svg"
 width="1371.000000pt" height="796.000000pt" viewBox="0 0 1371.000000 796.000000"
 preserveAspectRatio="xMidYMid meet">

<g transform="translate(0.000000,796.000000) scale(0.100000,-0.100000)"
fill="#000000" stroke="none">
<path d="M9415 7941 c-16 -7 -161 -43 -359 -89 -29 -7 -27 -8 35 -34 57 -24
387 -154 654 -258 55 -21 195 -75 310 -120 116 -45 220 -85 232 -90 19 -8 23
-17 21 -50 -1 -32 4 -47 25 -68 35 -34 130 -43 205 -18 47 16 55 16 98 1 64
-22 88 -35 78 -45 -5 -5 -119 -52 -254 -105 -135 -53 -254 -100 -265 -105
-141 -66 -246 -56 -675 64 -69 19 -158 47 -199 61 -88 31 -101 30 -246 -35
-11 -5 -37 -16 -58 -24 l-39 -16 124 -82 c68 -46 160 -105 206 -133 45 -27 82
-56 82 -62 0 -16 -2 -16 -125 3 -196 30 -211 29 -295 -10 -44 -21 -68 -37 -60
-40 8 -3 85 -30 171 -59 250 -87 254 -94 77 -127 -68 -12 -130 -24 -138 -27
-8 -2 -53 -11 -100 -20 -136 -23 -215 -39 -380 -72 -85 -18 -180 -36 -210 -40
-30 -5 -152 -29 -270 -54 -118 -26 -323 -69 -455 -96 -132 -27 -269 -57 -305
-65 -36 -9 -173 -40 -305 -70 -132 -30 -323 -75 -425 -100 -102 -25 -234 -57
-295 -71 -60 -15 -148 -37 -195 -49 -47 -13 -130 -35 -185 -50 -380 -98 -521
-136 -755 -202 -146 -42 -332 -96 -415 -121 -82 -25 -177 -53 -210 -63 -581
-172 -1546 -511 -1820 -639 -33 -16 -78 -36 -100 -45 -59 -26 -73 -32 -150
-66 -38 -18 -113 -50 -165 -72 -132 -56 -611 -292 -750 -370 -63 -36 -133 -75
-155 -88 -81 -45 -163 -96 -280 -173 -375 -248 -656 -504 -847 -772 -35 -48
-141 -248 -165 -310 -55 -143 -76 -326 -58 -500 53 -499 539 -899 1470 -1210
186 -62 237 -77 460 -137 361 -96 954 -209 1355 -258 203 -25 423 -49 495 -55
44 -3 92 -9 108 -11 39 -8 33 6 -21 46 -173 129 -418 361 -553 524 -138 166
-168 207 -298 403 -55 82 -82 115 -105 124 -40 16 -249 119 -301 148 -148 85
-301 210 -359 294 -78 115 -108 255 -86 400 13 87 64 246 104 325 34 67 145
231 204 302 141 167 424 430 652 606 413 318 1091 705 1865 1066 780 364 1589
678 2820 1096 430 146 1212 392 1420 447 l49 13 44 -39 c54 -47 116 -55 205
-27 51 16 57 7 83 -105 24 -107 32 -112 108 -69 51 28 165 161 166 193 1 41
162 84 485 129 306 42 375 52 575 85 236 39 374 67 479 96 51 13 77 17 84 10
19 -19 21 -128 3 -156 -21 -32 -22 -105 -1 -105 24 0 35 -43 46 -184 10 -141
29 -309 34 -315 9 -9 149 55 161 74 7 11 42 97 78 190 93 244 91 241 126 255
49 20 108 67 125 99 27 53 15 109 -37 183 -10 13 -9 24 5 53 9 20 17 42 17 50
0 19 2 20 141 59 68 19 216 60 329 91 345 96 657 191 730 223 205 89 315 160
367 237 22 32 28 51 28 95 0 70 -32 115 -113 158 -65 35 -88 41 -284 83 -263
56 -251 55 -483 15 -225 -39 -482 -102 -675 -166 -132 -44 -234 -73 -380 -109
-332 -81 -332 -81 -457 -55 -142 29 -189 48 -236 96 -29 30 -57 48 -90 58 -43
12 -56 11 -125 -8 -82 -22 -81 -22 -242 13 -103 23 -241 54 -285 65 -22 5 -80
19 -130 30 -49 11 -108 25 -130 30 -231 55 -303 72 -385 90 -52 11 -111 25
-131 30 -43 12 -96 12 -124 1z"/>
<path d="M8579 1093 c-132 -133 -271 -255 -440 -386 -109 -84 -120 -97 -82
-92 15 2 100 8 188 14 88 7 237 18 330 26 94 8 251 22 350 31 157 13 284 25
815 75 58 5 139 13 180 19 41 5 107 11 145 15 196 17 1039 113 1317 150 65 8
169 22 230 30 62 8 205 28 318 44 113 17 243 35 290 42 242 33 222 34 -628 34
-830 1 -1061 7 -1832 50 -440 24 -973 63 -1016 74 -31 8 -36 4 -165 -126z"/>
</g>
</svg>
