<?xml version="1.0" encoding="UTF-8"?>
<svg version="1.1" xmlns="http://www.w3.org/2000/svg" width="256" height="256">
<path d="M0 0 C0.64831929 -0.00367669 1.29663857 -0.00735338 1.9646039 -0.01114148 C4.13530554 -0.02214718 6.30595925 -0.02601691 8.47668457 -0.02983093 C10.03414053 -0.03609816 11.591595 -0.04274519 13.14904785 -0.04974365 C18.26410892 -0.07076341 23.3791702 -0.08114712 28.4942627 -0.09111023 C30.25846878 -0.09515918 32.02267472 -0.09927615 33.78688049 -0.10346031 C42.07998221 -0.12251089 50.37307505 -0.13673972 58.66619444 -0.14507228 C68.21998474 -0.15483123 77.77354252 -0.18111612 87.32725096 -0.22157317 C94.72278899 -0.25180915 102.11826067 -0.26654841 109.51385927 -0.26985329 C113.92523301 -0.27219611 118.33635832 -0.28105524 122.74766541 -0.30631447 C126.9042848 -0.32973023 131.06049463 -0.33377472 135.21716309 -0.32355309 C136.73439401 -0.3230608 138.25164602 -0.32928942 139.76881409 -0.34310913 C156.01901165 -0.48272573 169.53684993 4.00138234 181.64660645 15.10810852 C190.04227921 24.21942075 195.6269995 36.2144186 195.67268372 48.62165833 C195.6763604 49.26997761 195.68003709 49.9182969 195.68382519 50.58626223 C195.6948309 52.75696386 195.69870063 54.92761757 195.70251465 57.0983429 C195.70878187 58.65579886 195.7154289 60.21325333 195.72242737 61.77070618 C195.74344713 66.88576725 195.75383084 72.00082853 195.76379395 77.11592102 C195.7678429 78.88012711 195.77195986 80.64433304 195.77614403 82.40853882 C195.7951946 90.70164053 195.80942343 98.99473338 195.817756 107.28785276 C195.82751494 116.84164306 195.85379984 126.39520085 195.89425689 135.94890928 C195.92449287 143.34444731 195.93923212 150.73991899 195.94253701 158.1355176 C195.94487982 162.54689133 195.95373895 166.95801665 195.97899818 171.36932373 C196.00241394 175.52594313 196.00645843 179.68215295 195.9962368 183.83882141 C195.99574452 185.35605234 196.00197313 186.87330435 196.01579285 188.39047241 C196.15540944 204.64066997 191.67130137 218.15850826 180.5645752 230.26826477 C171.45326297 238.66393753 159.45826512 244.24865782 147.05102539 244.29434204 C146.4027061 244.29801873 145.75438682 244.30169542 145.08642149 244.30548352 C142.91571985 244.31648922 140.74506614 244.32035895 138.57434082 244.32417297 C137.01688486 244.3304402 135.45943039 244.33708723 133.90197754 244.34408569 C128.78691647 244.36510545 123.67185519 244.37548916 118.5567627 244.38545227 C116.79255661 244.38950122 115.02835067 244.39361819 113.2641449 244.39780235 C104.97104318 244.41685293 96.67795034 244.43108176 88.38483095 244.43941432 C78.83104065 244.44917327 69.27748287 244.47545816 59.72377443 244.51591522 C52.3282364 244.54615119 44.93276472 244.56089045 37.53716612 244.56419533 C33.12579238 244.56653815 28.71466707 244.57539728 24.30335999 244.60065651 C20.14674059 244.62407227 15.99053076 244.62811676 11.8338623 244.61789513 C10.31663138 244.61740285 8.79937937 244.62363146 7.2822113 244.63745117 C-8.96798626 244.77706777 -22.48582454 240.2929597 -34.59558105 229.18623352 C-42.99125382 220.07492129 -48.57597411 208.07992344 -48.62165833 195.67268372 C-48.62533501 195.02436443 -48.6290117 194.37604514 -48.6327998 193.70807981 C-48.64380551 191.53737818 -48.64767524 189.36672447 -48.65148926 187.19599915 C-48.65775648 185.63854318 -48.66440351 184.08108871 -48.67140198 182.52363586 C-48.69242174 177.40857479 -48.70280545 172.29351351 -48.71276855 167.17842102 C-48.71681751 165.41421493 -48.72093447 163.650009 -48.72511864 161.88580322 C-48.74416921 153.59270151 -48.75839804 145.29960866 -48.76673061 137.00648928 C-48.77648955 127.45269898 -48.80277444 117.89914119 -48.8432315 108.34543276 C-48.87346748 100.94989473 -48.88820673 93.55442305 -48.89151162 86.15882444 C-48.89385443 81.74745071 -48.90271356 77.33632539 -48.92797279 72.92501831 C-48.95138855 68.76839891 -48.95543304 64.61218909 -48.94521141 60.45552063 C-48.94471913 58.93828971 -48.95094774 57.42103769 -48.96476746 55.90386963 C-49.10438405 39.65367207 -44.62027598 26.13583378 -33.5135498 14.02607727 C-24.40223758 5.63040451 -12.40723973 0.04568422 0 0 Z M-31.0369873 25.95967102 C-40.74683882 37.83744536 -40.62511094 52.14891343 -40.61975098 66.74409485 C-40.62274991 68.08406669 -40.62615411 69.42403768 -40.62992859 70.76400757 C-40.63869751 74.37574802 -40.64110366 77.98746472 -40.64174438 81.59921479 C-40.64245886 83.86309885 -40.64460066 86.12697702 -40.64724159 88.3908596 C-40.65647109 96.3097153 -40.66057944 104.22855426 -40.65979004 112.14741516 C-40.65918971 119.49552548 -40.66973894 126.84356229 -40.6855337 134.19165403 C-40.69866433 140.52916486 -40.70397164 146.86665182 -40.70333463 153.20417613 C-40.70308129 156.97657566 -40.70584114 160.74890973 -40.71651268 164.52129555 C-40.72628741 168.07300628 -40.72620962 171.62459022 -40.71899605 175.17630577 C-40.71747402 177.07858785 -40.72573067 178.98087017 -40.73443604 180.88313293 C-40.67929028 196.193992 -38.86105486 210.09850603 -28.0994873 221.70967102 C-14.4096249 234.42168611 -1.11240354 236.29903772 17.19250488 236.29243469 C18.5520334 236.29543253 19.91156107 236.29883649 21.27108765 236.3026123 C24.94073663 236.31139341 28.61036224 236.31378793 32.28002071 236.31442809 C34.57957892 236.315142 36.8791313 236.31728276 39.17868805 236.31992531 C47.22073235 236.32915961 55.26276014 236.33326264 63.30480957 236.33247375 C70.7693462 236.33187364 78.23381041 236.34241731 85.69832873 236.35821742 C92.13348309 236.3713472 98.56861393 236.37665537 105.00378156 236.37601835 C108.83544038 236.37576493 112.66703478 236.3785287 116.49868011 236.3891964 C120.1070105 236.39896936 123.71521606 236.39889449 127.32355118 236.39167976 C129.2568549 236.39015717 131.19015887 236.39841611 133.1234436 236.40711975 C148.46406402 236.35272039 163.21148214 234.46120158 174.5255127 223.14717102 C186.36868502 209.30022964 187.67725329 195.18690072 187.67077637 177.55024719 C187.6737753 176.21027535 187.6771795 174.87030436 187.68095398 173.53033447 C187.6897229 169.91859402 187.69212906 166.30687732 187.69276977 162.69512725 C187.69348425 160.43124319 187.69562605 158.16736502 187.69826698 155.90348244 C187.70749648 147.98462674 187.71160483 140.06578778 187.71081543 132.14692688 C187.7102151 124.79881656 187.72076433 117.45077975 187.73655909 110.10268801 C187.74968972 103.76517718 187.75499703 97.42769022 187.75436002 91.09016591 C187.75410668 87.31776638 187.75686653 83.54543231 187.76753807 79.77304649 C187.7773128 76.22133576 187.77723501 72.66975182 187.77002144 69.11803627 C187.76849941 67.2157542 187.77675606 65.31347187 187.78546143 63.41120911 C187.73031567 48.10035004 185.91208025 34.19583601 175.1505127 22.58467102 C174.2842627 21.78029602 173.4180127 20.97592102 172.5255127 20.14717102 C171.6386377 19.32217102 170.7517627 18.49717102 169.8380127 17.64717102 C158.00890545 8.12984362 143.97447731 7.84089503 129.3885498 7.88838196 C128.0268078 7.88566333 126.66506728 7.88209757 125.30332947 7.87776184 C121.64634786 7.86873986 117.98948065 7.87213917 114.33249736 7.87852001 C110.48110728 7.88363237 106.62972609 7.87887426 102.77833557 7.87574768 C96.31538153 7.87212358 89.85247341 7.87686651 83.38952637 7.88642883 C75.94646462 7.89731499 68.50351246 7.89378034 61.06045336 7.88277602 C54.63711745 7.87366409 48.21381429 7.87243674 41.790474 7.87765336 C37.96841582 7.88075109 34.14640894 7.88124343 30.32435417 7.87458038 C26.7299156 7.86875017 23.13561669 7.87290612 19.54119301 7.8843689 C17.61370657 7.88822083 15.68620814 7.88237893 13.75872803 7.87611389 C-4.92872289 7.96575539 -18.23929046 11.91341839 -31.0369873 25.95967102 Z " fill="#337AC8" transform="translate(54.4744873046875,5.8528289794921875)"/>
<path d="M0 0 C3.83194546 2.90269869 5.87948346 6.51310578 7.125 11.05859375 C7.55233888 15.1081453 7.53502961 19.13186211 7.51318359 23.20092773 C7.51844055 24.4082959 7.52369751 25.61566406 7.52911377 26.85961914 C7.54002101 30.15521451 7.53751208 33.45044574 7.52797651 36.74603534 C7.52034866 40.20562135 7.52743433 43.66518409 7.53213501 47.12477112 C7.53758424 52.9342176 7.53042369 58.74354946 7.51611328 64.55297852 C7.49979597 71.25419417 7.5050718 77.95513583 7.5215925 84.65634483 C7.53524041 90.42473986 7.53711071 96.19305277 7.52927649 101.96145874 C7.52461708 105.40009138 7.52392692 108.83859557 7.53388596 112.27721977 C7.54152198 116.1139554 7.52986461 119.95016843 7.51318359 123.78686523 C7.51925629 124.91594803 7.52532898 126.04503082 7.53158569 127.20832825 C7.47054199 134.8042728 6.39554386 140.27435399 2.4375 146.87109375 C-1.26062764 150.3693226 -5.10312686 151.98467713 -10.21875 152.12109375 C-16.14733123 151.64680725 -19.91715435 150.1283163 -24.0625 145.74609375 C-27.71349303 140.33255236 -28.1628877 135.14221548 -28.10205078 128.75830078 C-28.10234283 127.94787827 -28.10263489 127.13745575 -28.10293579 126.30247498 C-28.10154937 123.64034079 -28.08602074 120.97849117 -28.0703125 118.31640625 C-28.06657992 116.46410271 -28.06373411 114.61179719 -28.06173706 112.75949097 C-28.05411988 107.89659118 -28.03448787 103.03381184 -28.0123291 98.17095947 C-27.99182937 93.2038333 -27.98272653 88.23668758 -27.97265625 83.26953125 C-27.95124015 73.53249931 -27.91712737 63.79555657 -27.875 54.05859375 C-28.39408936 54.38134277 -28.91317871 54.7040918 -29.44799805 55.03662109 C-31.81698711 56.50637204 -34.18968762 57.97002405 -36.5625 59.43359375 C-37.37912109 59.94148438 -38.19574219 60.449375 -39.03710938 60.97265625 C-40.23110352 61.70742187 -40.23110352 61.70742187 -41.44921875 62.45703125 C-42.17713623 62.90739746 -42.90505371 63.35776367 -43.6550293 63.82177734 C-49.40143187 67.0232813 -54.36179304 67.89496061 -60.875 67.05859375 C-65.71358548 64.72890444 -68.54531069 61.89717923 -70.875 57.05859375 C-71.72615719 51.72583341 -71.73195183 47.15097084 -68.46289062 42.60302734 C-64.81226334 39.0523096 -59.89119894 37.10917976 -55.375 34.87109375 C-40.24909456 27.01887845 -30.72958777 17.67878768 -20.38671875 4.10546875 C-15.18508747 -2.52942936 -7.65288325 -3.84238513 0 0 Z M-10.875 7.05859375 C-12.20909037 8.6829723 -13.54221874 10.30814093 -14.875 11.93359375 C-15.70386719 12.9390625 -16.53273437 13.94453125 -17.38671875 14.98046875 C-18.90456608 16.85811977 -20.3944204 18.75944842 -21.83203125 20.69921875 C-31.46812142 33.60143633 -44.93466453 40.04688298 -59.02416992 47.078125 C-60.83644398 47.92209213 -60.83644398 47.92209213 -61.875 49.05859375 C-62.25081502 53.18654503 -62.25081502 53.18654503 -60.75 56.93359375 C-58.03383803 58.56329093 -56.00633878 58.27296413 -52.875 58.05859375 C-44.11286335 54.69064748 -33.57876907 47.76236282 -26.875 41.05859375 C-24.54682036 40.69098644 -22.2131615 40.35617794 -19.875 40.05859375 C-19.86913376 41.250186 -19.86326752 42.44177826 -19.85722351 43.66947937 C-19.80002255 54.89647359 -19.72727454 66.12327362 -19.63928509 77.35007 C-19.59454844 83.12195631 -19.55529943 88.89377149 -19.52856445 94.66577148 C-19.50256457 100.23557334 -19.46218533 105.80510197 -19.41181374 111.37473488 C-19.39512264 113.50016699 -19.38362236 115.62564638 -19.37738609 117.75113487 C-19.36776956 120.72720389 -19.33973904 123.70257035 -19.30737305 126.6784668 C-19.30880814 127.55816132 -19.31024323 128.43785583 -19.3117218 129.34420776 C-19.23896406 134.07144488 -18.9277379 137.21022996 -15.875 141.05859375 C-13.3089794 143.00523007 -12.06383026 143.06630111 -8.8125 142.93359375 C-5.41647143 141.92201077 -4.57592845 141.10236045 -2.875 138.05859375 C-1.89048233 135.10504075 -1.74484693 133.17965314 -1.73455811 130.09988403 C-1.72884796 129.07645905 -1.72313782 128.05303406 -1.71725464 126.99859619 C-1.71613678 125.87644714 -1.71501892 124.7542981 -1.71386719 123.59814453 C-1.70890228 122.41580231 -1.70393738 121.23346008 -1.69882202 120.01528931 C-1.68671414 116.77142719 -1.67925555 113.52760112 -1.67481136 110.28372049 C-1.67187894 108.25662744 -1.66777383 106.22954002 -1.66330719 104.2024498 C-1.64963601 97.85875669 -1.63996726 91.51507649 -1.6361053 85.17136967 C-1.63162405 77.85090291 -1.61407162 70.53062282 -1.5851047 63.21021283 C-1.5634846 57.54981991 -1.55340086 51.88947951 -1.55206418 46.22904575 C-1.55101646 42.84910775 -1.54511588 39.46934533 -1.52724457 36.08945084 C-1.51022683 32.31876655 -1.51205408 28.54853893 -1.51855469 24.77783203 C-1.5093399 23.65973145 -1.50012512 22.54163086 -1.4906311 21.38964844 C-1.49620026 20.3605838 -1.50176941 19.33151917 -1.50750732 18.27127075 C-1.50604076 17.38010622 -1.5045742 16.48894169 -1.5030632 15.57077217 C-1.96550225 12.44731302 -2.9818292 10.57151422 -4.875 8.05859375 C-7.9707107 7.16652196 -7.9707107 7.16652196 -10.875 7.05859375 Z " fill="#3988CF" transform="translate(159.875,52.94140625)"/>
</svg>
